<?xml version="1.0" encoding="UTF-8"?>
<!DOCTYPE svg PUBLIC "-//W3C//DTD SVG 1.1//EN" "http://www.w3.org/Graphics/SVG/1.1/DTD/svg11.dtd">
<!-- Creator: CorelDRAW -->
<svg xmlns="http://www.w3.org/2000/svg" xml:space="preserve" width="6.82666in" height="6.82666in" style="shape-rendering:geometricPrecision; text-rendering:geometricPrecision; image-rendering:optimizeQuality; fill-rule:evenodd; clip-rule:evenodd"
viewBox="0 0 6.82666 6.82666"
 xmlns:xlink="http://www.w3.org/1999/xlink">
 <defs>
  <style type="text/css">
   <![CDATA[
    .fil1 {fill:none}
    .fil0 {fill:black;fill-rule:nonzero}
   ]]>
  </style>
 </defs>
 <g id="Layer_x0020_1">
  <metadata id="CorelCorpID_0Corel-Layer"/>
  <g id="_461365936">
   <path id="_461366152" class="fil0" d="M1.61879 1.40504c0.0839055,0.0904882 0.337071,0.405677 0.493882,0.75574 0.0978071,0.218346 0.161701,0.452854 0.131673,0.661035 -0.0433228,0.300374 -0.214291,0.484776 -0.422571,0.566646 -0.0996378,0.0391614 -0.207657,0.0544882 -0.314059,0.0475079 -0.106236,-0.0069685 -0.21122,-0.0362559 -0.304945,-0.0862953 -0.197756,-0.105591 -0.344949,-0.302724 -0.349157,-0.577146 -0.00554724,-0.362516 0.18165,-0.548051 0.363303,-0.728091 0.161594,-0.160157 0.318358,-0.315539 0.301516,-0.598945 -0.000251969,-0.00429134 -0.000440945,-0.00914961 -0.000976378,-0.013374 -0.0022874,-0.0293661 0.0196654,-0.0550276 0.0490315,-0.057315 0.0226457,-0.00176378 0.0430827,0.0108898 0.0523031,0.0302362zm0.396803 0.799071c-0.122307,-0.273039 -0.294969,-0.518531 -0.392461,-0.642488 -0.0238976,0.253606 -0.175528,0.403929 -0.331217,0.558232 -0.165925,0.164449 -0.336909,0.333917 -0.332051,0.651421 0.00353543,0.230555 0.127016,0.396075 0.292906,0.48465 0.080063,0.042748 0.170134,0.0677913 0.261614,0.0737913 0.091315,0.00599213 0.183728,-0.00704724 0.268642,-0.0404213 0.174961,-0.0687717 0.31885,-0.225575 0.355902,-0.48248 0.0267795,-0.185654 -0.032748,-0.400472 -0.123335,-0.602705z"/>
   <path id="_461365648" class="fil0" d="M3.60402 0.913642c0.0839055,0.0904921 0.337071,0.405677 0.493882,0.755736 0.0978071,0.218346 0.161701,0.452854 0.131673,0.661035 -0.0433228,0.300374 -0.214295,0.484776 -0.422571,0.56665 -0.0996378,0.0391614 -0.207657,0.0544882 -0.314059,0.0475079 -0.10624,-0.00697638 -0.21122,-0.0362598 -0.304945,-0.0862992 -0.197756,-0.105587 -0.344949,-0.302724 -0.349157,-0.577146 -0.00554724,-0.362516 0.18165,-0.548051 0.363303,-0.728091 0.163709,-0.162252 0.322461,-0.31961 0.30076,-0.610146 -5.11811e-005,-0.000744094 -0.000106299,-0.00143307 -0.000224409,-0.00217323 -0.0022874,-0.0293661 0.0196654,-0.0550276 0.0490315,-0.057315 0.0226457,-0.00176378 0.0430906,0.0108898 0.0523071,0.0302402zm0.396803 0.799067c-0.122307,-0.273039 -0.294972,-0.518535 -0.392465,-0.642488 -0.0239016,0.253602 -0.175524,0.403929 -0.331213,0.558232 -0.165925,0.164449 -0.336909,0.333917 -0.332051,0.651421 0.00353543,0.230555 0.127016,0.396075 0.292906,0.48465 0.080063,0.042748 0.170138,0.0677913 0.261614,0.0737953 0.091315,0.00599213 0.183728,-0.00704724 0.268642,-0.0404213 0.174953,-0.0687756 0.31885,-0.225575 0.355902,-0.482484 0.0267795,-0.185654 -0.032748,-0.400472 -0.123335,-0.602705z"/>
   <path id="_461366320" class="fil0" d="M5.34015 1.71425c0.0839094,0.0904961 0.337071,0.405677 0.493878,0.755736 0.0978071,0.218346 0.161701,0.452854 0.131673,0.661035 -0.0433228,0.30037 -0.214291,0.484772 -0.422567,0.566646 -0.0996378,0.0391614 -0.207657,0.0544882 -0.314063,0.0475079 -0.106236,-0.0069685 -0.21122,-0.036252 -0.304945,-0.0862953 -0.197756,-0.105591 -0.344949,-0.302724 -0.349157,-0.577146 -0.00554724,-0.362516 0.18165,-0.548055 0.363303,-0.728094 0.157012,-0.155614 0.309469,-0.306728 0.302535,-0.57515 -0.000318898,-0.0125118 -0.00122441,-0.0247047 -0.00199606,-0.0371693 -0.0022874,-0.0293661 0.0196654,-0.0550276 0.0490315,-0.057315 0.0226496,-0.00176378 0.0430866,0.0108898 0.0523071,0.0302441zm0.396799 0.799067c-0.122307,-0.273039 -0.294969,-0.518535 -0.392461,-0.642492 -0.0238976,0.253606 -0.175528,0.403929 -0.331217,0.558232 -0.165925,0.164449 -0.336909,0.333921 -0.332051,0.651425 0.00353543,0.230555 0.127016,0.396075 0.292906,0.48465 0.080063,0.042748 0.170134,0.0677913 0.261614,0.0737913 0.0913189,0.00599213 0.183732,-0.00704724 0.268646,-0.0404213 0.174953,-0.0687756 0.318846,-0.225575 0.355898,-0.48248 0.0267795,-0.185654 -0.032748,-0.400472 -0.123335,-0.602705z"/>
   <path id="_461366272" class="fil0" d="M2.10541 3.44975c0.0839055,0.0904882 0.337071,0.405677 0.493882,0.75574 0.0978071,0.218346 0.161701,0.452854 0.131673,0.661035 -0.0433228,0.300374 -0.214291,0.484776 -0.422571,0.566646 -0.0996378,0.0391614 -0.207657,0.0544882 -0.314059,0.0475079 -0.106236,-0.0069685 -0.21122,-0.036252 -0.304945,-0.0862953 -0.197756,-0.105591 -0.344949,-0.302724 -0.349157,-0.577146 -0.00554724,-0.362516 0.18165,-0.548051 0.363303,-0.728091 0.160488,-0.159059 0.316213,-0.313409 0.301839,-0.593142 -0.000322835,-0.00635039 -0.000712598,-0.0128504 -0.00129921,-0.0191772 -0.0022874,-0.0293661 0.0196654,-0.0550276 0.0490315,-0.057315 0.0226457,-0.00176378 0.0430827,0.0108898 0.0523031,0.0302362zm0.396803 0.799071c-0.122307,-0.273039 -0.294969,-0.518531 -0.392461,-0.642488 -0.0238976,0.253606 -0.175528,0.403929 -0.331217,0.558232 -0.165925,0.164449 -0.336909,0.333917 -0.332051,0.651421 0.00353543,0.230555 0.127016,0.396075 0.292906,0.48465 0.080063,0.042748 0.170134,0.0677913 0.261614,0.0737913 0.091315,0.00599213 0.183728,-0.00704724 0.268642,-0.0404213 0.174961,-0.0687717 0.31885,-0.225575 0.355902,-0.48248 0.0267795,-0.185654 -0.032748,-0.400472 -0.123335,-0.602705z"/>
   <path id="_461366296" class="fil0" d="M3.70652 3.28372c0.0839094,0.0905 0.337075,0.405681 0.493882,0.755736 0.0978071,0.218346 0.161701,0.452854 0.131673,0.661035 -0.0433228,0.300374 -0.214295,0.484776 -0.422575,0.566646 -0.0996378,0.0391614 -0.207657,0.0544882 -0.314059,0.0475079 -0.10624,-0.00697638 -0.21122,-0.0362598 -0.304945,-0.0862992 -0.197756,-0.105587 -0.344945,-0.302724 -0.349154,-0.577142 -0.00554724,-0.362516 0.18165,-0.548055 0.363303,-0.728091 0.155217,-0.153843 0.30598,-0.30328 0.302705,-0.566004 -0.000169291,-0.013748 -0.000224409,-0.0330157 -0.00216929,-0.0463189 -0.0022874,-0.0293661 0.0196654,-0.0550276 0.0490315,-0.057315 0.0226496,-0.00176378 0.0430866,0.0108898 0.0523071,0.0302441zm0.396803 0.799067c-0.122307,-0.273039 -0.294972,-0.518535 -0.392465,-0.642492 -0.0238976,0.253606 -0.175528,0.403929 -0.331213,0.558236 -0.165921,0.164445 -0.336909,0.333917 -0.332051,0.651421 0.00353543,0.230547 0.127012,0.396071 0.292902,0.484646 0.080063,0.042748 0.170138,0.0677913 0.261614,0.0737953 0.091315,0.00599213 0.183728,-0.00704724 0.268642,-0.0404213 0.174957,-0.0687717 0.318854,-0.225571 0.355906,-0.48248 0.0267795,-0.185654 -0.032748,-0.400472 -0.123335,-0.602705z"/>
   <path id="_461366224" class="fil0" d="M5.12656 3.91087c0.0839094,0.0904961 0.337071,0.405677 0.493878,0.755736 0.097811,0.218346 0.161705,0.452858 0.131677,0.661035 -0.0433228,0.30037 -0.214295,0.484776 -0.422571,0.566646 -0.0996378,0.0391654 -0.207661,0.0544882 -0.314063,0.0475079 -0.106244,-0.00697244 -0.211224,-0.0362559 -0.304949,-0.0862992 -0.197752,-0.105587 -0.344945,-0.302724 -0.349154,-0.577142 -0.00554724,-0.362516 0.18165,-0.548051 0.363303,-0.728091 0.159319,-0.157902 0.313945,-0.311165 0.302126,-0.587055 -0.000354331,-0.00830709 -0.000779528,-0.0170039 -0.00158661,-0.0252677 -0.0022874,-0.0293661 0.0196654,-0.0550276 0.0490315,-0.057315 0.0226496,-0.00176378 0.0430866,0.0108898 0.0523071,0.0302441zm0.396799 0.799067c-0.122307,-0.273039 -0.294969,-0.518535 -0.392461,-0.642492 -0.0238976,0.25361 -0.175528,0.403933 -0.331217,0.558236 -0.165925,0.164449 -0.336909,0.333917 -0.332051,0.651421 0.00353543,0.230551 0.127016,0.396071 0.292902,0.484646 0.0800669,0.042752 0.170134,0.0677953 0.261618,0.0737953 0.0913228,0.00599213 0.183732,-0.00704331 0.268646,-0.0404213 0.174953,-0.0687717 0.31885,-0.225575 0.355902,-0.48248 0.0267795,-0.185654 -0.0327441,-0.400469 -0.123339,-0.602705z"/>
  </g>
 </g>
 <rect class="fil1" width="6.82666" height="6.82666"/>
</svg>
